<mxfile host="app.diagrams.net" modified="2024-05-01T14:20:41.514Z" agent="Mozilla/5.0 (Macintosh; Intel Mac OS X 10_15_7) AppleWebKit/537.36 (KHTML, like Gecko) Chrome/124.0.0.0 Safari/537.36" etag="7mmIBIYcR0rVX1qoDn9W" version="24.0.4" type="github">
  <diagram name="Page-1" id="PsGNTERkMVCFi3AL_M9v">
    <mxGraphModel dx="792" dy="615" grid="1" gridSize="10" guides="1" tooltips="1" connect="1" arrows="1" fold="1" page="1" pageScale="1" pageWidth="850" pageHeight="1100" math="0" shadow="0">
      <root>
        <mxCell id="0" />
        <mxCell id="1" parent="0" />
        <mxCell id="qxM-q3SZRUhKUbwGHISn-1" value="Health4Everyone.AI&lt;div&gt;Robotics Maintenance Tool&lt;/div&gt;" style="text;html=1;align=center;verticalAlign=middle;resizable=0;points=[];autosize=1;strokeColor=none;fillColor=none;" vertex="1" parent="1">
          <mxGeometry x="40" y="20" width="170" height="40" as="geometry" />
        </mxCell>
        <mxCell id="qxM-q3SZRUhKUbwGHISn-2" value="Model Training" style="rounded=1;whiteSpace=wrap;html=1;" vertex="1" parent="1">
          <mxGeometry x="320" y="290" width="120" height="60" as="geometry" />
        </mxCell>
      </root>
    </mxGraphModel>
  </diagram>
</mxfile>
